# xmcd
# Copyright (C) 1995-1998 Ti Kan
#
# Track frame offsets:
#       182
#       12647
#       25862
#       37967
#       53205
#       62702
#       76945
#       91817
#       102547
#       116800
#       131657
#       145185
#       156962
#       171497
#       182852
#       196635
#       213987
#       225972
#       238070
#       246395
#       256285
#       274462
#
# Disc length: 3820 seconds
#
# Revision: 2
# Processed by: cddbd v1.4b41PL3 Copyright (c) Steve Scherf et al.
# Submitted via: CD-DA X-Tractor v0.20
#
DISCID=3b0eea16
DTITLE=Chet Atkins - 22 Legendary Duets
DYEAR=1900
DGENRE=
TTITLE0=Good Stuff
TTITLE1=Beautiful Dreamer
TTITLE2=Do I Ever Cross Your Mind
TTITLE3=I'll See You In My Dreams
TTITLE4=Sail Along Silv'ry Moon
TTITLE5=Fiddlin' Around
TTITLE6=Frog Kissin'
TTITLE7=You're Gonna Be Sorry
TTITLE8=Tennessee Stud
TTITLE9=Indian Love Call
TTITLE10=Goodnight Waltz
TTITLE11=Brazil
TTITLE12=Tenderly
TTITLE13=Terry On The Turnpike
TTITLE14=Four In The Morning
TTITLE15=Scarborough Fair/Canticle
TTITLE16=Guitar Country
TTITLE17=Green, Green Grass Of Home
TTITLE18=Country Gentleman
TTITLE19=La Chicana
TTITLE20=I Surrender Dear
TTITLE21=This Nearly Was Mine
EXTD=
EXTT0=
EXTT1=
EXTT2=
EXTT3=
EXTT4=
EXTT5=
EXTT6=
EXTT7=
EXTT8=
EXTT9=
EXTT10=
EXTT11=
EXTT12=
EXTT13=
EXTT14=
EXTT15=
EXTT16=
EXTT17=
EXTT18=
EXTT19=
EXTT20=
EXTT21=
PLAYORDER=
